<mxfile host="app.diagrams.net" modified="2023-06-13T08:56:00.128Z" agent="Mozilla/5.0 (Macintosh; Intel Mac OS X 10_15_7) AppleWebKit/537.36 (KHTML, like Gecko) Chrome/111.0.0.0 Safari/537.36" version="21.3.8" etag="649shG_CMChlXe1zmnFh" type="github">
  <diagram name="第 1 页" id="qQLNU_lgE8ozffnVsq8M">
    <mxGraphModel>
      <root>
        <mxCell id="0" />
        <mxCell id="1" parent="0" />
      </root>
    </mxGraphModel>
  </diagram>
</mxfile>
